<?xml version="1.0" encoding="UTF-8"?>
<svg width="420px" height="420px" viewBox="0 0 420 420" version="1.1" xmlns="http://www.w3.org/2000/svg" xmlns:xlink="http://www.w3.org/1999/xlink">
    <title>blue-st</title>
    <g id="d-leaf" stroke="none" stroke-width="1" fill="none" fill-rule="evenodd">
        <g id="blue-st">
            <circle id="Oval" fill="#2E2F30" cx="210" cy="210" r="210"></circle>
            <path d="M290.528413,404.005741 L239,404 C172.84181,404 119.084736,350.904508 118.016211,285.000956 L118,283 L118,127 L269,127 C276.163118,127 283.180859,127.622436 290.002086,128.816172 L290,404 L290.528413,404.005741 L290.528413,404.005741 Z M390,248 L389.983789,245.999044 C389.030956,187.23104 346.181359,138.64772 290.002086,128.816172 L290.002915,15.7767262 C331.839819,33.0286034 366.88263,63.4048566 390.002634,101.776773 L390.002715,318.223093 L390,248 Z" id="Combined-Shape" fill="#29B6F6"></path>
            <path d="M389.983789,245.999044 L390,248 L390.002,302.454142 L390.002715,318.223093 C384.477144,327.393813 378.270556,336.107831 371.452963,344.295133 L370.597656,345.315715 C365.50754,351.350657 360.08345,357.094714 354.353882,362.51939 C348.670257,367.900559 342.686182,372.967336 336.429339,377.692034 C334.900499,378.846494 333.355744,379.980265 331.795117,381.093217 C330.793245,381.807694 329.785061,382.513432 328.770446,383.210488 C326.801044,384.563491 324.807673,385.883612 322.790861,387.17024 C317.860273,390.315708 312.789869,393.260856 307.590833,395.994404 L306.40053,396.615379 C306.002909,396.821196 305.604547,397.02578 305.205448,397.229125 L304.005603,397.835612 C302.002758,398.839927 299.981625,399.81315 297.942835,400.75465 L296.717823,401.315568 C296.308659,401.501325 295.898794,401.685808 295.488234,401.869012 L294.254082,402.414951 C293.430182,402.776232 292.603518,403.132377 291.77413,403.483345 L290.528413,404.005741 L290.528413,404.005741 L290,404 L290.001913,128.816142 C346.181272,138.647621 389.030955,187.230979 389.983789,245.999044 Z" id="Combined-Shape" fill="#27A6DF"></path>
            <g id="connectors" opacity="0.225154433" transform="translate(72.000000, 75.000000)" stroke="#FFFFFF" stroke-width="3">
                <line x1="156.5" y1="289.5" x2="190.5" y2="195.5" id="Path"></line>
                <line x1="0.5" y1="135.5" x2="190.5" y2="195.5" id="Path"></line>
                <line x1="90.5" y1="82.5" x2="197.5" y2="195.5" id="Path"></line>
                <line x1="163.5" y1="0.5" x2="190.5" y2="186.5" id="Path"></line>
            </g>
            <circle id="Oval" fill="#FFFFFF" cx="228.5" cy="364.5" r="5.5"></circle>
            <circle id="Oval" stroke="#FFFFFF" stroke-width="11" cx="57.5" cy="206.5" r="19"></circle>
            <circle id="Oval" fill="#FFFFFF" cx="162" cy="157" r="8"></circle>
            <circle id="Oval" stroke="#FFFFFF" stroke-width="10" fill="#FFFFFF" cx="234" cy="63" r="13"></circle>
            <g id="spokes" transform="translate(33.000000, 45.000000)"></g>
            <circle id="center" fill="#2E2F30" cx="263.5" cy="266.5" r="53.5"></circle>
        </g>
    </g>
</svg>